<?xml version="1.0" standalone="no"?>
<!DOCTYPE svg PUBLIC "-//W3C//DTD SVG 20010904//EN"
 "http://www.w3.org/TR/2001/REC-SVG-20010904/DTD/svg10.dtd">
<svg version="1.0" xmlns="http://www.w3.org/2000/svg"
 width="1262.000000pt" height="682.000000pt" viewBox="0 0 1262.000000 682.000000"
 preserveAspectRatio="xMidYMid meet">
<metadata>
Created by potrace 1.16, written by Peter Selinger 2001-2019
</metadata>
<g transform="translate(0.000000,682.000000) scale(0.100000,-0.100000)"
fill="#000000" stroke="none">
<path d="M0 3410 l0 -3410 6310 0 6310 0 0 3410 0 3410 -6310 0 -6310 0 0
-3410z m10054 1547 c46 -20 81 -57 107 -112 18 -38 19 -85 19 -1205 0 -1109
-1 -1167 -19 -1205 -21 -45 -61 -89 -106 -113 -28 -16 -323 -17 -4005 -17
-3682 0 -3977 1 -4005 17 -45 24 -85 68 -106 113 -18 38 -19 96 -19 1205 0
1110 1 1167 19 1205 34 73 80 109 166 128 11 3 1795 4 3965 3 3740 -1 3947 -2
3984 -19z"/>
<path d="M5854 4528 c-13 -13 -14 -36 -9 -125 3 -59 8 -127 11 -150 l5 -43
184 0 184 0 7 57 c8 67 -1 252 -13 263 -4 5 -86 10 -181 12 -151 3 -175 1
-188 -14z"/>
<path d="M2556 4524 c-92 -7 -170 -14 -171 -16 -2 -2 -8 -318 -14 -703 -6
-385 -13 -778 -16 -872 l-6 -173 105 0 c59 0 106 1 106 3 1 1 7 211 15 465 7
255 15 465 17 468 2 2 27 -4 54 -13 l51 -16 64 -446 65 -446 102 -3 c78 -2
102 0 102 10 0 7 27 211 59 453 49 363 63 442 77 452 10 7 21 13 25 13 13 0
17 -45 44 -500 15 -239 29 -437 32 -440 2 -3 56 -5 119 -5 91 0 117 3 125 15
20 29 -11 1694 -32 1714 -5 6 -402 55 -407 51 -2 -2 -31 -168 -65 -369 -54
-316 -64 -366 -79 -366 -10 0 -20 10 -23 23 -4 22 -85 668 -85 685 0 9 -68 33
-86 31 -5 -1 -85 -8 -178 -15z"/>
<path d="M8673 4516 c-101 -10 -115 -14 -147 -41 l-36 -30 10 -375 c5 -206 12
-398 16 -426 l5 -51 152 -7 c84 -4 190 -9 236 -13 l84 -6 -7 -216 c-4 -118 -8
-216 -9 -217 -1 -1 -208 22 -224 26 -2 0 -3 56 -3 125 0 121 -1 125 -22 130
-35 7 -232 24 -236 20 -2 -2 -8 -86 -14 -186 -10 -161 -9 -194 6 -274 16 -82
21 -94 51 -118 18 -15 66 -40 107 -56 65 -25 90 -29 228 -36 l155 -7 105 54
105 53 17 200 c13 152 15 257 11 438 -6 230 -7 238 -27 242 -46 10 -213 26
-331 32 -147 7 -129 -16 -145 192 -12 157 -4 205 34 215 12 3 49 6 84 6 l62 0
0 -109 0 -110 43 -5 c23 -3 92 -7 153 -9 l111 -4 7 60 c3 33 6 129 6 213 l0
153 -32 50 c-27 44 -38 53 -82 66 -115 35 -262 41 -473 21z"/>
<path d="M3900 4504 c-69 -7 -128 -13 -132 -13 -3 -1 -23 -34 -44 -73 l-38
-73 -7 -460 c-4 -253 -8 -570 -10 -705 l-2 -245 25 -50 c49 -96 48 -95 300
-119 198 -19 236 -20 341 -9 107 11 123 16 156 42 34 27 38 36 50 108 8 53 14
287 17 738 5 618 4 664 -13 729 l-19 68 -59 25 c-69 28 -250 54 -365 52 -41
-1 -131 -7 -200 -15z m328 -474 l33 -20 -6 -108 c-3 -59 -10 -258 -16 -442 -6
-184 -13 -338 -17 -341 -4 -3 -26 -13 -49 -22 -34 -13 -62 -15 -131 -11 l-89
7 -6 436 c-4 288 -2 450 5 479 l10 42 117 0 c99 0 121 -3 149 -20z"/>
<path d="M5478 4513 l-137 -4 -5 -52 c-3 -28 -24 -344 -46 -702 -22 -357 -43
-679 -47 -715 l-6 -65 -24 53 c-20 46 -31 135 -93 720 -38 367 -73 689 -76
716 l-6 49 -180 -5 c-98 -3 -182 -9 -187 -14 -4 -5 52 -331 125 -724 172 -927
185 -996 194 -1010 6 -10 54 -10 221 -1 117 6 214 13 216 15 20 20 73 298 183
956 71 426 128 775 127 776 -8 6 -144 9 -259 7z"/>
<path d="M7318 4514 c-10 -3 -18 -7 -18 -8 0 -1 49 -343 110 -760 67 -464 120
-795 136 -856 l27 -98 41 -6 c23 -3 140 -8 262 -12 l220 -7 17 64 c9 35 74
420 144 854 l128 790 -165 16 c-91 9 -166 16 -166 15 -1 0 -59 -336 -129 -746
-116 -682 -129 -747 -151 -769 -13 -14 -25 -23 -26 -20 -2 2 0 348 5 768 4
420 7 764 5 766 -6 5 -423 14 -440 9z"/>
<path d="M6456 4458 c-16 -109 -27 -564 -27 -1092 0 -318 2 -581 4 -583 2 -2
187 -7 411 -11 l406 -7 0 176 0 177 -32 5 c-18 3 -124 9 -236 13 -111 4 -204
10 -206 13 -2 3 -7 86 -11 184 l-8 177 183 0 183 0 -6 68 c-4 37 -7 86 -7 110
l0 42 -196 0 -197 0 7 92 c3 50 6 117 6 150 l0 58 256 0 257 0 -7 46 c-3 26
-6 124 -6 218 0 94 -4 176 -8 182 -5 7 -128 13 -383 18 l-376 6 -7 -42z"/>
<path d="M5855 3909 c-7 -189 -3 -1114 5 -1123 8 -7 349 -10 357 -3 3 3 9 91
14 194 6 136 4 273 -6 496 -12 232 -13 342 -6 449 6 78 8 144 6 147 -3 2 -85
6 -184 9 l-179 5 -7 -174z"/>
<path d="M9436 3074 c-3 -9 -6 -76 -6 -149 0 -123 2 -135 19 -145 22 -11 162
-14 235 -4 41 6 47 10 54 38 14 50 2 238 -16 259 -13 15 -34 17 -147 17 -112
0 -134 -2 -139 -16z"/>
</g>
</svg>
